<mxfile host="app.diagrams.net" modified="2023-02-13T01:02:35.596Z" agent="5.0 (Macintosh; Intel Mac OS X 10_15_7) AppleWebKit/537.36 (KHTML, like Gecko) Chrome/105.0.0.0 Safari/537.36" etag="HclvC1ZlxOiryvv8hTaz" version="20.5.3" type="github">
  <diagram id="XSZD9BSyhmBb0wp4Pm1U" name="第 1 页">
    <mxGraphModel dx="838" dy="519" grid="0" gridSize="10" guides="1" tooltips="1" connect="1" arrows="1" fold="1" page="1" pageScale="1" pageWidth="827" pageHeight="1169" math="0" shadow="0">
      <root>
        <mxCell id="0" />
        <mxCell id="1" parent="0" />
        <mxCell id="0xg7Uc1ugJluwT9oKRFj-1" value="Parallel Data" style="shape=cylinder3;whiteSpace=wrap;html=1;boundedLbl=1;backgroundOutline=1;size=15;fillColor=#dae8fc;strokeColor=#6c8ebf;" vertex="1" parent="1">
          <mxGeometry x="140" y="180" width="100" height="60" as="geometry" />
        </mxCell>
        <mxCell id="0xg7Uc1ugJluwT9oKRFj-2" value="Seed Data" style="shape=cylinder3;whiteSpace=wrap;html=1;boundedLbl=1;backgroundOutline=1;size=15;fillColor=#dae8fc;strokeColor=#6c8ebf;" vertex="1" parent="1">
          <mxGeometry x="314" y="180" width="100" height="60" as="geometry" />
        </mxCell>
        <mxCell id="0xg7Uc1ugJluwT9oKRFj-3" value="Synthetic Data" style="shape=cylinder3;whiteSpace=wrap;html=1;boundedLbl=1;backgroundOutline=1;size=15;fillColor=#dae8fc;strokeColor=#6c8ebf;" vertex="1" parent="1">
          <mxGeometry x="488" y="180" width="100" height="60" as="geometry" />
        </mxCell>
        <mxCell id="0xg7Uc1ugJluwT9oKRFj-4" value="mBERT" style="rounded=1;whiteSpace=wrap;html=1;fillColor=#fff2cc;strokeColor=#d6b656;" vertex="1" parent="1">
          <mxGeometry x="223" y="280" width="110" height="40" as="geometry" />
        </mxCell>
        <mxCell id="0xg7Uc1ugJluwT9oKRFj-6" value="NMT model" style="rounded=1;whiteSpace=wrap;html=1;fillColor=#f8cecc;strokeColor=#b85450;" vertex="1" parent="1">
          <mxGeometry x="284" y="360" width="160" height="40" as="geometry" />
        </mxCell>
        <mxCell id="0xg7Uc1ugJluwT9oKRFj-7" value="Uncertainty Model" style="rounded=1;whiteSpace=wrap;html=1;fillColor=#fff2cc;strokeColor=#d6b656;" vertex="1" parent="1">
          <mxGeometry x="410" y="280" width="110" height="40" as="geometry" />
        </mxCell>
        <mxCell id="0xg7Uc1ugJluwT9oKRFj-8" value="" style="endArrow=classic;html=1;rounded=0;exitX=1;exitY=0.5;exitDx=0;exitDy=0;exitPerimeter=0;entryX=0;entryY=0.5;entryDx=0;entryDy=0;entryPerimeter=0;" edge="1" parent="1" source="0xg7Uc1ugJluwT9oKRFj-1" target="0xg7Uc1ugJluwT9oKRFj-2">
          <mxGeometry width="50" height="50" relative="1" as="geometry">
            <mxPoint x="330" y="400" as="sourcePoint" />
            <mxPoint x="380" y="350" as="targetPoint" />
          </mxGeometry>
        </mxCell>
        <mxCell id="0xg7Uc1ugJluwT9oKRFj-9" value="" style="endArrow=classic;html=1;rounded=0;exitX=1;exitY=0.5;exitDx=0;exitDy=0;exitPerimeter=0;entryX=0;entryY=0.5;entryDx=0;entryDy=0;entryPerimeter=0;" edge="1" parent="1">
          <mxGeometry width="50" height="50" relative="1" as="geometry">
            <mxPoint x="414" y="209.5" as="sourcePoint" />
            <mxPoint x="488" y="209.5" as="targetPoint" />
          </mxGeometry>
        </mxCell>
        <mxCell id="0xg7Uc1ugJluwT9oKRFj-12" value="" style="endArrow=classic;html=1;rounded=0;exitX=0.5;exitY=1;exitDx=0;exitDy=0;exitPerimeter=0;entryX=0;entryY=0.5;entryDx=0;entryDy=0;" edge="1" parent="1" target="0xg7Uc1ugJluwT9oKRFj-7">
          <mxGeometry width="50" height="50" relative="1" as="geometry">
            <mxPoint x="333.75" y="300" as="sourcePoint" />
            <mxPoint x="394.25" y="340" as="targetPoint" />
          </mxGeometry>
        </mxCell>
        <mxCell id="0xg7Uc1ugJluwT9oKRFj-15" value="" style="curved=1;endArrow=classic;html=1;rounded=0;entryX=0;entryY=0.5;entryDx=0;entryDy=0;" edge="1" parent="1" target="0xg7Uc1ugJluwT9oKRFj-6">
          <mxGeometry width="50" height="50" relative="1" as="geometry">
            <mxPoint x="160" y="240" as="sourcePoint" />
            <mxPoint x="340" y="420" as="targetPoint" />
            <Array as="points">
              <mxPoint x="200" y="380" />
            </Array>
          </mxGeometry>
        </mxCell>
        <mxCell id="0xg7Uc1ugJluwT9oKRFj-24" value="adaptive training" style="edgeLabel;html=1;align=center;verticalAlign=middle;resizable=0;points=[];" vertex="1" connectable="0" parent="0xg7Uc1ugJluwT9oKRFj-15">
          <mxGeometry x="-0.178" y="14" relative="1" as="geometry">
            <mxPoint x="-9" as="offset" />
          </mxGeometry>
        </mxCell>
        <mxCell id="0xg7Uc1ugJluwT9oKRFj-16" value="" style="curved=1;endArrow=classic;html=1;rounded=0;entryX=1;entryY=0.5;entryDx=0;entryDy=0;exitX=0.95;exitY=0.867;exitDx=0;exitDy=0;exitPerimeter=0;" edge="1" parent="1" source="0xg7Uc1ugJluwT9oKRFj-3" target="0xg7Uc1ugJluwT9oKRFj-7">
          <mxGeometry width="50" height="50" relative="1" as="geometry">
            <mxPoint x="590" y="230" as="sourcePoint" />
            <mxPoint x="580" y="390" as="targetPoint" />
            <Array as="points">
              <mxPoint x="580" y="280" />
            </Array>
          </mxGeometry>
        </mxCell>
        <mxCell id="0xg7Uc1ugJluwT9oKRFj-17" value="" style="endArrow=classic;html=1;rounded=0;exitX=0.427;exitY=-0.05;exitDx=0;exitDy=0;exitPerimeter=0;entryX=0.855;entryY=1;entryDx=0;entryDy=-4.35;entryPerimeter=0;" edge="1" parent="1" source="0xg7Uc1ugJluwT9oKRFj-7" target="0xg7Uc1ugJluwT9oKRFj-1">
          <mxGeometry width="50" height="50" relative="1" as="geometry">
            <mxPoint x="250" y="220" as="sourcePoint" />
            <mxPoint x="324" y="220" as="targetPoint" />
          </mxGeometry>
        </mxCell>
        <mxCell id="0xg7Uc1ugJluwT9oKRFj-26" value="uncertainty&amp;nbsp;&lt;br&gt;estimation" style="edgeLabel;html=1;align=center;verticalAlign=middle;resizable=0;points=[];" vertex="1" connectable="0" parent="0xg7Uc1ugJluwT9oKRFj-17">
          <mxGeometry x="0.0732" y="-1" relative="1" as="geometry">
            <mxPoint as="offset" />
          </mxGeometry>
        </mxCell>
        <mxCell id="0xg7Uc1ugJluwT9oKRFj-18" value="" style="curved=1;endArrow=classic;html=1;rounded=0;entryX=0;entryY=0.5;entryDx=0;entryDy=0;" edge="1" parent="1" target="0xg7Uc1ugJluwT9oKRFj-4">
          <mxGeometry width="50" height="50" relative="1" as="geometry">
            <mxPoint x="180" y="240" as="sourcePoint" />
            <mxPoint x="304" y="380" as="targetPoint" />
            <Array as="points">
              <mxPoint x="190" y="280" />
            </Array>
          </mxGeometry>
        </mxCell>
        <mxCell id="0xg7Uc1ugJluwT9oKRFj-19" value="filter" style="text;html=1;align=center;verticalAlign=middle;resizable=0;points=[];autosize=1;strokeColor=none;fillColor=none;" vertex="1" parent="1">
          <mxGeometry x="245" y="185" width="50" height="30" as="geometry" />
        </mxCell>
        <mxCell id="0xg7Uc1ugJluwT9oKRFj-20" value="add noise" style="text;html=1;align=center;verticalAlign=middle;resizable=0;points=[];autosize=1;strokeColor=none;fillColor=none;" vertex="1" parent="1">
          <mxGeometry x="410" y="185" width="80" height="30" as="geometry" />
        </mxCell>
        <mxCell id="0xg7Uc1ugJluwT9oKRFj-21" value="fine-tune" style="text;html=1;align=center;verticalAlign=middle;resizable=0;points=[];autosize=1;strokeColor=none;fillColor=none;" vertex="1" parent="1">
          <mxGeometry x="570" y="250" width="70" height="30" as="geometry" />
        </mxCell>
        <mxCell id="0xg7Uc1ugJluwT9oKRFj-22" value="pre-train" style="text;html=1;align=center;verticalAlign=middle;resizable=0;points=[];autosize=1;strokeColor=none;fillColor=none;" vertex="1" parent="1">
          <mxGeometry x="180" y="250" width="70" height="30" as="geometry" />
        </mxCell>
        <mxCell id="0xg7Uc1ugJluwT9oKRFj-27" value="initialize" style="text;html=1;align=center;verticalAlign=middle;resizable=0;points=[];autosize=1;strokeColor=none;fillColor=none;" vertex="1" parent="1">
          <mxGeometry x="333" y="296" width="70" height="30" as="geometry" />
        </mxCell>
      </root>
    </mxGraphModel>
  </diagram>
</mxfile>
